<?xml version="1.0" encoding="UTF-8" standalone="no"?>
<!-- Created with Inkscape (http://www.inkscape.org/) -->

<svg
   width="1000"
   height="1000"
   viewBox="0 0 264.58333 264.58333"
   version="1.1"
   id="svg2841"
   xmlns="http://www.w3.org/2000/svg"
   xmlns:svg="http://www.w3.org/2000/svg"
   xmlns:rdf="http://www.w3.org/1999/02/22-rdf-syntax-ns#"
   xmlns:cc="http://creativecommons.org/ns#">
  <defs
     id="defs2838" />
  <g
     id="layer1"
     style="display:inline">
    <g
       id="g2215">
      <path
         style="fill:none;stroke:#0a0707;stroke-width:1.5875;stroke-linecap:round;stroke-linejoin:round;stroke-miterlimit:4;stroke-dasharray:none;stroke-opacity:1"
         d="m 61.907003,132.87314 -0.133392,1.38524 -0.106498,1.40027 -0.08024,1.3827 -0.04997,1.36553 -0.02372,1.34796 0.0034,1.32233 0.02604,1.30031 0.05356,1.27067 0.07664,1.24461 0.100556,1.21051 0.124055,1.18045 0.139931,1.1455 0.159828,1.111 0.18015,1.07245 0.188402,1.03264 0.204277,0.9977 0.216975,0.95429 0.221626,0.91004 0.233901,0.87065 0.234106,0.83 0.235158,0.78129 0.239386,0.74106 0.236414,0.69193 0.232173,0.65489 0.225177,0.60534 0.21776,0.55981 0.205895,0.5179 0.198901,0.46833 0.183013,0.42601 0.167125,0.38365 0.152084,0.33326 0.136197,0.29091 0.116285,0.24815 0.09278,0.20092 0.07731,0.15457 0.05338,0.11136 0.03346,0.0686 0.01,0.0214"
         id="path895" />
      <path
         style="fill:none;stroke:#0a0707;stroke-width:1.5875;stroke-linecap:round;stroke-linejoin:round;stroke-miterlimit:4;stroke-dasharray:none;stroke-opacity:1"
         d="m 61.9125,132.82084 0.1588,-1.39478 0.190768,-1.42803 0.21533,-1.42951 0.244338,-1.4346 0.268053,-1.42803 0.292193,-1.4255 0.311463,-1.41534 0.33518,-1.40878 0.353603,-1.39057 0.372452,-1.37639 0.390452,-1.35415 0.400831,-1.3368 0.413964,-1.30694 0.427096,-1.27709 0.428582,-1.25252 0.436424,-1.21103 0.44151,-1.18202 0.436859,-1.13776 0.441099,-1.10071 0.432425,-1.05688 0.423749,-1.01304 0.418676,-0.96477 0.405555,-0.91733 0.39159,-0.86186 0.374444,-0.81484 0.356033,-0.75577 0.334443,-0.70516 0.316031,-0.646073 0.289572,-0.587845 0.263113,-0.52961 0.236232,-0.467354 0.209773,-0.409119 0.178867,-0.347287 0.143518,-0.281853 0.117055,-0.223619 0.08171,-0.158185 0.0508,-0.09635 0.01545,-0.03092"
         id="path897" />
      <path
         style="fill:none;stroke:#0a0707;stroke-width:1.5875;stroke-linecap:round;stroke-linejoin:round;stroke-miterlimit:4;stroke-dasharray:none;stroke-opacity:1"
         d="m 69.683277,58.886827 -0.13466,1.39731 -0.10988,1.432458 -0.08701,1.447063 -0.05885,1.450023 -0.03513,1.45659 -0.01015,1.451079 0.01,1.453182 0.03538,1.44366 0.05634,1.437726 0.07814,1.423752 0.100376,1.405736 0.114559,1.386898 0.133189,1.364452 0.151818,1.342005 0.159225,1.310241 0.174678,1.279323 0.186529,1.243961 0.190334,1.207755 0.202611,1.168361 0.203238,1.123688 0.204289,1.074987 0.20894,1.030732 0.205969,0.981607 0.203419,0.92846 0.197269,0.870868 0.190697,0.817297 0.180948,0.755259 0.174797,0.697666 0.161024,0.635204 0.147252,0.572741 0.133478,0.510279 0.120552,0.439771 0.102753,0.376886 0.08136,0.309555 0.06843,0.239047 0.04703,0.171716 0.02966,0.104812 0.0087,0.03345"
         id="path899" />
      <path
         style="fill:none;stroke:#0a0707;stroke-width:1.5875;stroke-linecap:round;stroke-linejoin:round;stroke-miterlimit:4;stroke-dasharray:none;stroke-opacity:1"
         d="m 69.688775,58.834521 0.157954,-1.386723 0.186539,-1.387795 0.208987,-1.369158 0.235035,-1.34609 0.25706,-1.323435 0.278662,-1.296759 0.295394,-1.262458 0.316574,-1.231754 0.333729,-1.201482 0.350463,-1.167182 0.366773,-1.128859 0.375037,-1.091385 0.386901,-1.049458 0.399611,-1.015578 0.398983,-0.97091 0.406823,-0.929394 0.410642,-0.888334 0.406414,-0.848096 0.409384,-0.798965 0.401556,-0.763181 0.392883,-0.719359 0.387807,-0.671073 0.375532,-0.631682 0.362835,-0.588283 0.346115,-0.545294 0.329393,-0.502308 0.309071,-0.463761 0.292352,-0.420786 0.267582,-0.378633 0.242817,-0.336501 0.586193,-0.77835 0.522476,-0.675227 0.458121,-0.566055 0.756419,-0.888597 1.0399,-1.147601 1.311749,-1.334604 1.566671,-1.437982 1.803605,-1.486292 2.028902,-1.462623 2.229855,-1.400811 2.414513,-1.300061 2.489748,-1.351442 2.81729,-1.160125 2.097915,-0.746224 2.10401,-0.409672 3.87472,-0.444442 3.56921,-0.08365 3.19419,0.33318 2.81927,0.708285 2.4165,1.097136 1.99987,1.47211 1.56934,1.805461 1.12494,2.124824 0.68047,2.416513 0.11111,4.048418 -0.79158,4.423361 -1.12494,3.110931 -1.56934,3.152532 -1.99987,3.180368 -2.04232,2.544525 -1.90772,2.15007 -1.39322,1.354943 -1.58569,1.415919 -1.9131,1.696551 -3.45625,2.890834 -3.41028,3.033963 -3.33403,3.159945 -3.23873,3.259443 -3.116755,3.337346 -2.978903,3.380305 -2.817976,3.397228 -2.632281,3.37199 -2.429866,3.303787 -2.209037,3.176485 -1.961752,2.990967 -1.703253,2.737468 -1.424228,2.404777 -1.128699,1.992466 -0.82027,1.496093 -0.496602,0.932169 -0.167438,0.315948"
         id="path901" />
      <path
         style="fill:none;stroke:#0a0707;stroke-width:1.5875;stroke-linecap:round;stroke-linejoin:round;stroke-miterlimit:4;stroke-dasharray:none;stroke-opacity:1"
         d="m 66.489058,163.46736 0.111199,0.21914 0.330421,0.64893 0.554717,1.03047 0.778577,1.33873 1.006026,1.57415 1.23304,1.7363 1.455597,1.82479 1.680046,1.85651 1.889883,1.83382 2.091875,1.76963 2.284335,1.68003 2.460484,1.55211 2.617366,1.41403 2.764288,1.25457 2.887073,1.09257 2.994614,0.92082 3.073565,0.75014 3.136004,0.5818 3.177902,0.41534 3.1944,0.25848 3.18547,0.11108 3.15476,-0.0223 3.10667,-0.14532 3.02788,-0.24716 2.93132,-0.33459 2.80849,-0.40445 2.67149,-0.45546 2.51225,-0.48845 2.33079,-0.50347 2.13514,-0.49963 1.92572,-0.48096 1.69451,-0.44831 1.45758,-0.4 1.20772,-0.34491 0.94857,-0.27859 0.68411,-0.20063 0.41203,-0.12753 0.13826,-0.0384"
         id="path903" />
      <path
         style="fill:none;stroke:#0a0707;stroke-width:1.5875;stroke-linecap:round;stroke-linejoin:round;stroke-miterlimit:4;stroke-dasharray:none;stroke-opacity:1"
         d="m 73.51054,96.662428 0.09809,0.343855 0.291941,1.015049 0.49129,1.633943 0.689777,2.183595 0.893125,2.64834 1.09688,3.03178 1.296604,3.3375 1.500334,3.56636 1.690296,3.73276 1.873683,3.84559 2.050073,3.90888 2.210578,3.92981 2.354774,3.91242 2.490702,3.85757 2.604185,3.78406 2.704958,3.67671 2.77926,3.55029 2.83958,3.40205 2.88106,3.23963 2.89967,3.06262 2.89498,2.87501 2.87059,2.68127 2.83055,2.48181 2.76275,2.27539 2.67845,2.07127 2.56959,1.86865 2.44822,1.66878 2.3059,1.47486 2.14219,1.29086 1.96515,1.11769 1.77519,0.9513 1.56427,0.79083 1.34721,0.65004 1.11766,0.51204 0.87837,0.38926 0.63464,0.27008 0.38158,0.16214 0.12854,0.0542"
         id="path905" />
      <path
         style="fill:none;stroke:#0a0707;stroke-width:1.5875;stroke-linecap:round;stroke-linejoin:round;stroke-miterlimit:4;stroke-dasharray:none;stroke-opacity:1"
         d="m 142.54323,181.9107 0.0623,0.0268 0.19121,0.0771 0.31976,0.13118 0.43707,0.1761 0.56687,0.21821 0.68058,0.25865 0.79112,0.2906 0.90207,0.31852 1.00583,0.33758 1.10684,0.34412 1.19174,0.34897 1.27348,0.34537 1.35245,0.32926 1.41216,0.30299 1.47632,0.27313 1.51717,0.23266 1.55888,0.18415 1.5845,0.13405 1.60332,0.071 1.61051,0.002 1.60522,-0.0631 1.59312,-0.1417 1.56412,-0.21389 1.53594,-0.29414 1.48722,-0.37248 1.43004,-0.44764"
         id="path911" />
      <path
         style="fill:none;stroke:#0a0707;stroke-width:1.5875;stroke-linecap:round;stroke-linejoin:round;stroke-miterlimit:4;stroke-dasharray:none;stroke-opacity:1"
         d="m 142.54323,181.9107 0.0673,-0.0213 0.20601,-0.0637 0.34428,-0.10212 0.47131,-0.14977 0.60958,-0.18812 0.73175,-0.22817 0.85074,-0.27666 0.96846,-0.31311 1.07856,-0.35442 1.18464,-0.39614 1.2742,-0.43555 1.35889,-0.46731 1.43999,-0.50355 1.50011,-0.53382 1.56343,-0.55565 1.60174,-0.57196 1.64006,-0.58827 1.66104,-0.5942 1.67267,-0.5889 1.67141,-0.57684 1.65639,-0.54995 1.63286,-0.51987 1.59203,-0.47943 1.54947,-0.42288 1.48553,-0.35639"
         id="path913" />
    </g>
  </g>
  <metadata
     id="metadata2933">
    <rdf:RDF>
      <cc:License
         rdf:about="http://scripts.sil.org/OFL">
        <cc:permits
           rdf:resource="http://scripts.sil.org/pub/OFL/Reproduction" />
        <cc:permits
           rdf:resource="http://scripts.sil.org/pub/OFL/Distribution" />
        <cc:permits
           rdf:resource="http://scripts.sil.org/pub/OFL/Embedding" />
        <cc:permits
           rdf:resource="http://scripts.sil.org/pub/OFL/DerivativeWorks" />
        <cc:requires
           rdf:resource="http://scripts.sil.org/pub/OFL/Notice" />
        <cc:requires
           rdf:resource="http://scripts.sil.org/pub/OFL/Attribution" />
        <cc:requires
           rdf:resource="http://scripts.sil.org/pub/OFL/ShareAlike" />
        <cc:requires
           rdf:resource="http://scripts.sil.org/pub/OFL/DerivativeRenaming" />
        <cc:requires
           rdf:resource="http://scripts.sil.org/pub/OFL/BundlingWhenSelling" />
      </cc:License>
      <cc:Work
         rdf:about="">
        <cc:license
           rdf:resource="http://scripts.sil.org/OFL" />
      </cc:Work>
    </rdf:RDF>
  </metadata>
</svg>
