<?xml version="1.0" encoding="UTF-8" standalone="no"?>
<!-- Created with Inkscape (http://www.inkscape.org/) -->

<svg
   width="1000"
   height="1000"
   viewBox="0 0 264.58333 264.58333"
   version="1.1"
   id="svg2841"
   xmlns="http://www.w3.org/2000/svg"
   xmlns:svg="http://www.w3.org/2000/svg"
   xmlns:rdf="http://www.w3.org/1999/02/22-rdf-syntax-ns#"
   xmlns:cc="http://creativecommons.org/ns#">
  <defs
     id="defs2838" />
  <g
     id="layer1"
     style="display:inline">
    <g
       id="g31678"
       transform="matrix(-0.03324103,0.3162672,-0.3162672,-0.03324103,213.19613,25.512527)"
       style="fill:none;stroke:#000000;stroke-width:5.3874;stroke-miterlimit:4;stroke-dasharray:none;stroke-opacity:1" />
    <path
       style="fill:#000000;fill-opacity:1;stroke:none;stroke-width:0.219274"
       d="m 112.57345,154.12146 c -0.30441,0.28784 -0.58445,0.57372 -0.84139,0.85293 -0.25693,0.27921 -0.49075,0.5517 -0.70279,0.81282 -0.21204,0.2611 -0.40225,0.51082 -0.57196,0.7444 -1.1042,1.51979 -1.7882,2.97452 -2.2146,4.0853 -0.69437,1.80896 -0.98767,3.44162 -1.11601,4.66282 -0.20933,1.99167 -0.0653,3.70082 0.13352,4.95545 0.32457,2.04906 0.92743,3.72171 1.46316,4.92488 0.87646,1.96855 1.93189,3.48571 2.79382,4.55012 1.41294,1.74487 2.88553,2.98821 4.04168,3.82814 1.89953,1.38016 3.72553,2.23832 5.12307,2.77472 2.3024,0.88382 4.39094,1.25841 5.95796,1.4231 2.59002,0.27228 4.82625,0.0831 6.47397,-0.17784 2.73422,-0.43302 4.98275,-1.24413 6.60871,-1.96807 2.71105,-1.20701 4.81986,-2.67466 6.31016,-3.88151 2.49981,-2.0243 4.30292,-4.16045 5.3851,-5.85076 1.79922,-2.67725 3.0314,-5.29844 3.81391,-7.33696 1.33628,-3.48112 1.91922,-6.71807 2.18154,-9.21401 0.45398,-4.3192 0.1349,-8.20537 -0.34357,-11.22635 -0.84343,-5.32503 -2.51968,-10.08918 -4.26227,-14.00304 -2.07511,-4.66069 -4.6386,-9.00065 -7.35416,-13.02668 -2.11286,-3.13237 -4.37306,-6.15659 -6.68734,-9.11874 -1.8777,-2.4034 -3.79716,-4.77372 -6.51883,-8.15039 -2.32132,-2.88228 -3.8405,-4.758304 -5.32662,-6.660492 -1.83165,-2.344426 -3.62051,-4.737963 -5.29278,-7.217123 -2.14926,-3.186432 -4.17815,-6.621345 -5.82051,-10.310103 -1.37918,-3.097653 -2.70588,-6.868301 -3.37341,-11.082848 -0.37872,-2.390977 -0.63123,-5.466721 -0.27193,-8.885193 0.2076,-1.975465 0.669,-4.537394 1.7266,-7.292559 0.61933,-1.613407 1.59455,-3.687982 3.13629,-5.810016 0.91205,-1.255301 2.24804,-2.838055 4.10024,-4.337936 1.10422,-0.89419 2.66672,-1.981651 4.67546,-2.875943 1.20473,-0.536411 2.87072,-1.137394 4.89662,-1.45823 1.22086,-0.193357 2.87777,-0.333517 4.79682,-0.131792 1.16106,0.121998 2.70853,0.399585 4.41447,1.054419 1.03549,0.397454 2.38846,1.033283 3.79588,2.055915 0.85663,0.622323 1.9477,1.543576 2.99464,2.836422 0.63862,0.788636 1.42063,1.912765 2.07004,3.371339 0.39693,0.891474 0.84363,2.130814 1.0841,3.649028 0.14726,0.929604 0.25401,2.195972 0.099,3.671676 -0.095,0.904843 -0.31241,2.114543 -0.82691,3.454864 -0.079,0.205763 -0.16993,0.427438 -0.27461,0.66181 -0.10469,0.23439 -0.22325,0.481478 -0.35748,0.738016 -0.1342,0.256556 -0.28417,0.522579 -0.45165,0.794839 0.1,0.49122 2.43407,0.919826 2.47906,0.863965 0.19302,-0.31374 0.71895,-1.480189 0.87363,-1.775818 0.15465,-0.295646 0.2913,-0.580382 0.41197,-0.850477 0.12068,-0.270096 0.22544,-0.525551 0.31647,-0.762673 0.59289,-1.544573 0.8433,-2.938592 0.9529,-3.981308 0.17873,-1.700576 0.0556,-3.159905 -0.11386,-4.231181 -0.27713,-1.749546 -0.79189,-3.17774 -1.24931,-4.205061 -0.74836,-1.680816 -1.64953,-2.976256 -2.38546,-3.885069 -1.20646,-1.489846 -2.46381,-2.551465 -3.45098,-3.26862 -1.6219,-1.178455 -3.181,-1.911179 -4.37428,-2.369185 -1.9659,-0.754631 -3.74917,-1.074471 -5.08716,-1.215111 -2.21146,-0.232483 -4.12085,-0.07097 -5.52775,0.151896 -2.3346,0.369738 -4.25448,1.062304 -5.64277,1.680437 -2.31483,1.03058 -4.11541,2.283734 -5.38791,3.314183 -2.13444,1.728428 -3.674,3.552376 -4.72503,4.998974 -1.77666,2.445378 -2.90051,4.836081 -3.6142,6.695338 -1.21875,3.174992 -1.75044,6.127313 -1.9897,8.403784 -0.41406,3.939366 -0.12303,7.483803 0.31335,10.239123 0.76925,4.85677 2.29813,9.201968 3.88748,12.771653 1.89261,4.250838 4.23068,8.209176 6.70745,11.881159 1.92706,2.856937 3.9885,5.615218 6.09928,8.316868 1.7126,2.19206 3.46325,4.35395 5.21418,6.51618 1.75094,2.16222 3.5016,4.3241 5.21418,6.51616 2.11078,2.70165 4.17223,5.45993 6.0993,8.31686 2.47677,3.67199 4.81481,7.63031 6.70745,11.88116 1.58934,3.56969 3.11821,7.91489 3.88747,12.77166 0.4364,2.75533 0.72739,6.29976 0.31336,10.23913 -0.23927,2.27647 -0.77095,5.22879 -1.9897,8.40377 -0.71372,1.85929 -1.83754,4.24996 -3.61423,6.69535 -1.05101,1.44659 -2.59056,3.27054 -4.72501,4.99897 -1.2725,1.03045 -3.07307,2.28361 -5.38789,3.31419 -1.38831,0.61813 -3.30819,1.31069 -5.64281,1.68043 -1.40688,0.22286 -3.31627,0.38433 -5.52776,0.15189 -1.33796,-0.14054 -3.12124,-0.46047 -5.08713,-1.21511 -1.19327,-0.45799 -2.75238,-1.19073 -4.3743,-2.36916 -0.98716,-0.71718 -2.2445,-1.77879 -3.45096,-3.26864 -0.73594,-0.90881 -1.6371,-2.20425 -2.38546,-3.88507 -0.45742,-1.02732 -0.9722,-2.45549 -1.2493,-4.20506 -0.1696,-1.07128 -0.29272,-2.53061 -0.11398,-4.23119 0.10964,-1.04271 0.35998,-2.43675 0.95287,-3.9813 0.36408,-0.94843 0.9481,-2.19054 1.89092,-3.48822 0.14484,-0.19944 0.30733,-0.41264 0.48836,-0.63558 0.18104,-0.22295 0.3807,-0.45565 0.60009,-0.69403 0.21938,-0.2384 0.4585,-0.48249 0.71841,-0.72827 -0.0318,-0.4215 -2.41658,-1.50683 -2.49896,-1.44334 z"
       id="path2669" />
  </g>
  <metadata
     id="metadata2933">
    <rdf:RDF>
      <cc:License
         rdf:about="http://scripts.sil.org/OFL">
        <cc:permits
           rdf:resource="http://scripts.sil.org/pub/OFL/Reproduction" />
        <cc:permits
           rdf:resource="http://scripts.sil.org/pub/OFL/Distribution" />
        <cc:permits
           rdf:resource="http://scripts.sil.org/pub/OFL/Embedding" />
        <cc:permits
           rdf:resource="http://scripts.sil.org/pub/OFL/DerivativeWorks" />
        <cc:requires
           rdf:resource="http://scripts.sil.org/pub/OFL/Notice" />
        <cc:requires
           rdf:resource="http://scripts.sil.org/pub/OFL/Attribution" />
        <cc:requires
           rdf:resource="http://scripts.sil.org/pub/OFL/ShareAlike" />
        <cc:requires
           rdf:resource="http://scripts.sil.org/pub/OFL/DerivativeRenaming" />
        <cc:requires
           rdf:resource="http://scripts.sil.org/pub/OFL/BundlingWhenSelling" />
      </cc:License>
      <cc:Work
         rdf:about="">
        <cc:license
           rdf:resource="http://scripts.sil.org/OFL" />
      </cc:Work>
    </rdf:RDF>
  </metadata>
</svg>
