<?xml version="1.0" encoding="UTF-8" standalone="no"?>
<!-- Created with Inkscape (http://www.inkscape.org/) -->

<svg
   width="1000"
   height="1000"
   viewBox="0 0 264.58333 264.58333"
   version="1.1"
   id="svg2841"
   xmlns="http://www.w3.org/2000/svg"
   xmlns:svg="http://www.w3.org/2000/svg"
   xmlns:rdf="http://www.w3.org/1999/02/22-rdf-syntax-ns#"
   xmlns:cc="http://creativecommons.org/ns#">
  <defs
     id="defs2838" />
  <g
     id="layer2">
    <path
       style="fill:none;stroke:#000000;stroke-width:3.17499996;stroke-linecap:round;stroke-linejoin:round;stroke-miterlimit:10;stroke-dasharray:none;stroke-opacity:1;paint-order:stroke fill markers"
       d="m 203.30725,26.070934 c 0.81444,-4.208876 -2.18149,-8.84746 -6.74675,-8.65192 -7.40293,0.03643 -14.10612,4.275331 -19.71946,8.72557 -5.32084,4.43981 -10.83478,8.684946 -14.97626,14.313745 -4.76679,5.446542 -9.55717,10.87568 -13.08689,17.237449 -4.26287,6.603222 -8.6577,13.134394 -11.54534,20.488046 -4.02296,8.634068 -8.22602,17.196 -10.90981,26.366726 -6.26827,20.07639 -10.02651,41.56537 -6.7271,62.54769 1.45321,6.89233 3.20883,14.9682 9.52491,19.05148 5.32673,2.72272 9.97756,-2.9069 11.8424,-7.33201 5.99991,-14.27025 5.26336,-30.30971 3.39001,-45.36806 -1.83174,-12.59511 -4.96415,-25.05011 -9.47618,-36.94506 -4.01136,-8.670184 -7.30908,-17.714276 -11.78027,-26.143517 -5.75067,-9.05782 -10.79788,-18.60518 -17.84192,-26.7629 C 97.029139,33.884057 87.697372,24.419002 75.880899,19.217761 71.363981,17.205609 64.142091,15.738953 61.383333,21.135087 c -2.272526,6.725168 1.806062,13.609643 5.27907,19.149203 5.069884,7.991774 12.594337,13.907876 18.99467,20.774557 8.890557,6.264284 17.278557,13.311275 27.055447,18.195239 6.13326,3.756224 12.72166,6.625553 19.23378,9.643564 10.37045,-4.671314 20.16659,-10.538105 30.17563,-15.910273 9.95526,-7.594038 20.71407,-14.400736 28.70291,-24.21051 5.60833,-6.472732 11.22391,-14.02058 12.48279,-22.705976"
       id="path2344" />
  </g>
  <metadata
     id="metadata2933">
    <rdf:RDF>
      <cc:Work
         rdf:about="">
        <cc:license
           rdf:resource="http://scripts.sil.org/OFL" />
      </cc:Work>
      <cc:License
         rdf:about="http://scripts.sil.org/OFL">
        <cc:permits
           rdf:resource="http://scripts.sil.org/pub/OFL/Reproduction" />
        <cc:permits
           rdf:resource="http://scripts.sil.org/pub/OFL/Distribution" />
        <cc:permits
           rdf:resource="http://scripts.sil.org/pub/OFL/Embedding" />
        <cc:permits
           rdf:resource="http://scripts.sil.org/pub/OFL/DerivativeWorks" />
        <cc:requires
           rdf:resource="http://scripts.sil.org/pub/OFL/Notice" />
        <cc:requires
           rdf:resource="http://scripts.sil.org/pub/OFL/Attribution" />
        <cc:requires
           rdf:resource="http://scripts.sil.org/pub/OFL/ShareAlike" />
        <cc:requires
           rdf:resource="http://scripts.sil.org/pub/OFL/DerivativeRenaming" />
        <cc:requires
           rdf:resource="http://scripts.sil.org/pub/OFL/BundlingWhenSelling" />
      </cc:License>
    </rdf:RDF>
  </metadata>
</svg>
