<?xml version="1.0" encoding="UTF-8" standalone="no"?>
<!-- Created with Inkscape (http://www.inkscape.org/) -->

<svg
   width="1000"
   height="1000"
   viewBox="0 0 264.58333 264.58333"
   version="1.1"
   id="svg2841"
   xmlns="http://www.w3.org/2000/svg"
   xmlns:svg="http://www.w3.org/2000/svg"
   xmlns:rdf="http://www.w3.org/1999/02/22-rdf-syntax-ns#"
   xmlns:cc="http://creativecommons.org/ns#">
  <defs
     id="defs2838">
    <clipPath
       id="clip12">
      <path
         d="m 302,159 h 2 v 78.32031 h -2 z m 0,0"
         id="path2016" />
    </clipPath>
  </defs>
  <g
     id="layer1"
     style="display:inline">
    <path
       style="fill:none;stroke:#000000;stroke-width:3.17499996;stroke-linecap:square;stroke-linejoin:miter;stroke-miterlimit:3.25;stroke-dasharray:none;stroke-opacity:1"
       d="m 132.32741,213.25432 v -0.13234 l -0.006,-0.0232 v -0.0542 l -0.006,-0.0702 v -0.039 l -0.006,-0.039 -0.006,-0.0857 v -0.0158 l -0.006,-0.0158 v -0.0232 l -0.006,-0.0469 -0.0156,-0.10905 v -0.0311 l -0.006,-0.0311 -0.006,-0.0622 -0.021,-0.1246 -0.0524,-0.29586 v -0.0158 l -0.006,-0.0158 -0.0524,-0.27253 -0.0723,-0.33485 -0.0156,-0.0469 -0.006,-0.0469 -0.021,-0.0857 -0.0418,-0.19477 -0.10835,-0.40492 -0.0157,-0.0469 -0.0156,-0.0542 -0.0314,-0.10126 -0.065,-0.21805 -0.13713,-0.45945 -0.006,-0.0311 -0.0157,-0.0311 -0.0157,-0.0542 -0.0418,-0.12459 -0.0796,-0.2414 -0.18057,-0.51391 -0.0314,-0.0779 -0.0314,-0.0702 -0.0524,-0.14793 -0.11566,-0.29587 -0.24547,-0.62293 -0.58421,-1.33932 -0.0156,-0.0469 -0.021,-0.039 -0.11515,-0.24919 -0.15859,-0.33485 -0.33916,-0.69301 -0.76452,-1.44831 -2.07002,-3.45729 -2.59657,-3.73761 -2.93551,-3.7454 -3.72887,-4.28266 -3.94529,-4.18145 -4.24819,-4.22816 -4.96948,-4.71094 -4.868505,-4.50071 -5.416615,-4.99125 -5.33009,-5.02241 -4.854125,-4.78881 -5.012705,-5.33388 -4.320306,-5.11585 -0.06493,-0.0857 -0.07225,-0.0857 -0.137126,-0.17918 -0.27426,-0.35039 -0.540923,-0.70859 -1.060249,-1.41716 -2.005118,-2.86549 -0.05762,-0.0857 -0.05762,-0.0935 -0.115661,-0.17122 -0.238145,-0.35818 -0.454308,-0.71639 -0.879932,-1.42495 -0.05232,-0.0935 -0.05762,-0.0857 -0.108346,-0.17901 -0.209355,-0.36599 -0.410867,-0.71639 -0.793417,-1.44831 -0.04187,-0.0857 -0.05234,-0.0857 -0.08634,-0.17122 -0.17325,-0.33479 -0.345963,-0.67745 -0.656337,-1.37045 -0.0366,-0.0857 -0.04187,-0.0857 -0.07957,-0.17122 -0.454308,-1.02784 -0.569823,-1.37823 -0.07226,-0.18681 -0.07957,-0.18681 -0.137134,-0.37378 -0.281058,-0.74753 -0.03668,-0.0935 -0.02622,-0.0935 -0.06493,-0.1868 -0.137125,-0.38159 -0.245473,-0.74752 -0.03668,-0.0935 -0.0314,-0.0935 -0.05762,-0.19478 -0.115672,-0.37373 -0.223492,-0.7553 -0.404058,-1.51064 -0.0314,-0.0935 -0.02093,-0.0857 -0.0366,-0.17901 -0.08633,-0.3504 -0.158588,-0.70859 -0.02093,-0.0857 -0.01575,-0.0935 -0.03668,-0.17122 -0.07225,-0.35818 -0.137134,-0.7086 -0.01575,-0.0857 -0.01565,-0.0935 -0.0314,-0.17121 -0.05762,-0.35819 -0.01566,-0.0857 -0.01575,-0.0935 -0.02622,-0.17122 -0.05233,-0.35819 -0.01575,-0.0857 -0.01575,-0.0935 -0.02093,-0.17122 -0.05234,-0.35819 -0.07957,-0.70859 -0.01575,-0.0857 -0.02093,-0.25699 -0.03668,-0.35039 -0.02613,-0.34265 -0.0314,-0.3504 -0.01575,-0.17121 -0.0056,-0.17121 -0.0056,-0.0935 -0.0056,-0.0857 -0.0056,-0.17122 -0.0056,-0.0857 v -0.0857 l -0.01566,-0.17121 v -0.0935 l -0.0056,-0.0857 -0.0056,-0.17121 v -0.17127 l -0.0056,-0.0857 v -0.0857 l -0.0056,-0.0857 v -0.26479 l -0.0056,-0.0857 v -0.42826 l -0.0056,-0.0857 v -0.52176 l 0.0056,-0.0857 v -0.34262 l 0.0056,-0.0857 v -0.25707 l 0.0056,-0.17121 0.0056,-0.0935 v -0.0935 l 0.0056,-0.18675 0.0056,-0.0935 v -0.0935 l 0.0056,-0.18681 0.01564,-0.18681 0.0056,-0.18675 0.03668,-0.46719 0.0056,-0.0857 0.05762,-0.74752 0.02093,-0.17901 0.03668,-0.37379 0.01575,-0.0935 0.0056,-0.0935 0.02093,-0.17901 0.05234,-0.37379 0.0056,-0.0857 0.01575,-0.0935 0.02093,-0.18675 0.05762,-0.36599 0.01575,-0.0935 0.01575,-0.0857 0.0314,-0.18675 0.05762,-0.36599 0.129798,-0.72417 0.01575,-0.0857 0.02093,-0.0857 0.0314,-0.17121 0.07224,-0.3348 0.143934,-0.67745 0.04187,-0.17121 0.03668,-0.16348 0.07957,-0.33485 0.17324,-0.66964 0.02093,-0.0857 0.02093,-0.0779 0.05234,-0.17121 0.08633,-0.32706 0.194703,-0.66188 0.425521,-1.308167 0.03668,-0.0935 0.03139,-0.0857 0.06493,-0.17901 0.122471,-0.350397 0.266933,-0.693017 0.562598,-1.378251 0.04187,-0.0857 0.108347,-0.25693 0.158586,-0.342597 0.317174,-0.67743 0.670787,-1.323732 0.04187,-0.08572 0.04187,-0.07792 0.08634,-0.163471 0.17324,-0.319256 0.360625,-0.638501 0.757301,-1.245874 0.05234,-0.07792 0.04187,-0.07792 0.101012,-0.155673 0.605827,-0.911055 0.843871,-1.191352 0.101019,-0.140133 0.101009,-0.132336 0.209357,-0.272527 0.418193,-0.537311 0.865489,-1.051189 0.05234,-0.06221 0.05762,-0.06221 0.108345,-0.132336 0.223491,-0.249189 0.4543,-0.506121 0.93044,-0.981105 0.06493,-0.07018 0.06493,-0.06221 0.1298,-0.132335 0.259605,-0.256931 0.526531,-0.50612 1.081857,-0.988903 0.07224,-0.06221 0.06493,-0.05481 0.137125,-0.124595 0.84387,-0.700799 1.139592,-0.895465 0.07224,-0.0469 0.06493,-0.05424 0.137126,-0.101258 0.82226,-0.584008 1.125142,-0.755315 0.06493,-0.0469 0.07225,-0.03899 0.14446,-0.09346 0.281059,-0.17901 0.57704,-0.35039 1.161211,-0.661884 0.288386,-0.155672 0.288394,-0.147932 0.577039,-0.303661 1.175652,-0.560647 0.143932,-0.06221 0.151262,-0.07018 0.295713,-0.132336 0.598657,-0.249189 1.197271,-0.467188 0.07957,-0.03108 0.08689,-0.03108 0.158586,-0.06221 0.331828,-0.116797 0.656337,-0.218054 0.08634,-0.03108 0.07957,-0.02317 0.165914,-0.05481 0.331829,-0.101258 0.66356,-0.194549 0.07957,-0.02317 0.08634,-0.02317 0.165913,-0.0469 0.331837,-0.08572 0.670732,-0.171211 0.07957,-0.01582 0.08689,-0.02317 0.165914,-0.03899 0.331827,-0.06995 0.670788,-0.140134 0.317174,-0.06221 0.310375,-0.05425 0.158587,-0.03108 0.158588,-0.02317 0.310374,-0.05481 0.07957,-0.0079 0.07957,-0.01582 0.158586,-0.02317 0.310374,-0.03899 0.627495,-0.08572 0.158586,-0.01582 0.151269,-0.01582 0.475763,-0.0469 0.15126,-0.01582 0.317172,-0.02317 0.158598,-0.01582 0.151259,-0.0079 0.158587,-0.01582 0.158588,-0.0079 0.07957,-0.0079 h 0.07224 l 0.158587,-0.0079 0.07957,-0.0079 h 0.07957 l 0.158588,-0.0079 h 0.07957 l 0.08633,-0.0079 h 0.17324 l 0.07957,-0.0079 h 0.252279 l 0.08634,-0.0079 h 1.016962 l 0.07957,0.0079 h 0.252279 l 0.08689,0.0079 h 0.165914 l 0.08634,0.0079 h 0.08634 l 0.165914,0.0079 0.08634,0.0079 h 0.07957 l 0.17324,0.0079 0.07957,0.0079 0.08633,0.0079 0.165913,0.0079 0.0863,0.0079 h 0.0795 l 0.16592,0.01582 0.339147,0.03108 h 0.0795 l 0.0864,0.0079 0.16593,0.02317 0.33181,0.03108 0.0795,0.0079 0.0863,0.0079 0.16591,0.02317 0.33184,0.03899 0.0722,0.0079 0.0795,0.01582 0.15858,0.02317 0.30305,0.03899 0.61304,0.101258 0.0795,0.01582 0.0722,0.0079 0.15126,0.03108 0.31037,0.05424 0.60584,0.124595 0.0722,0.01582 0.0795,0.01582 0.15126,0.03108 0.2957,0.07018 0.59862,0.147931 1.19009,0.319256 0.14393,0.0469 0.14446,0.03899 0.2884,0.09352 0.56977,0.179179 1.12519,0.404918 0.0722,0.03108 0.0723,0.02317 0.13711,0.05424 0.28108,0.109056 0.54814,0.225796 1.08913,0.482783 0.0722,0.03108 0.0795,0.03108 0.43286,0.210257 0.57698,0.288122 1.13242,0.607349 0.065,0.03899 0.0722,0.03899 0.13712,0.07792 0.2816,0.163471 0.54809,0.327054 1.06751,0.685225 0.065,0.03899 0.065,0.0469 0.12247,0.07792 0.24547,0.171212 0.4831,0.334851 0.94488,0.700793 0.11516,0.09352 0.11567,0.08572 0.23081,0.179009 0.46164,0.365987 0.88715,0.755315 0.0575,0.05424 0.065,0.0469 0.11568,0.109055 0.69246,0.630726 0.90154,0.864315 0.0524,0.05424 0.0576,0.05481 0.10835,0.109056 0.21616,0.225853 0.42551,0.443851 0.82942,0.903263 0.0524,0.05424 0.0418,0.06221 0.10102,0.109056 0.19469,0.225796 0.38208,0.451648 0.74291,0.918831 1.3704,1.853235 0.0723,0.109055 0.0795,0.109056 0.14391,0.218055 0.29572,0.436053 0.55538,0.872106 1.03139,1.736421 0.0314,0.06221 0.0366,0.05424 0.19472,0.350391 0.24493,0.467188 0.47629,0.918836 0.0314,0.05425 0.021,0.06221 0.0575,0.109056 0.10834,0.233593 0.21669,0.451649 0.40405,0.887678 0.021,0.0548 0.021,0.0469 0.0523,0.10126 0.0864,0.202457 0.16591,0.40492 0.3245,0.794244 0.0156,0.0542 0.021,0.0469 0.0366,0.10126 0.0723,0.186807 0.14394,0.38932 0.26691,0.747524 0.0262,0.0935 0.0365,0.0857 0.0576,0.17901 0.11566,0.3504 0.20936,0.68523 0.0157,0.039 0.0157,0.0469 0.021,0.0779 0.0523,0.16347 0.0937,0.32706 0.16593,0.62293 0.0157,0.039 0.006,0.0469 0.021,0.0779 0.0418,0.16347 0.0796,0.31147 0.13713,0.60737 0.006,0.0311 0.006,0.039 0.0418,0.21026 0.0576,0.27252 0.10102,0.52172 v 0.0232 l 0.006,0.0311 0.006,0.0548 0.021,0.1168 0.0366,0.21026 0.006,0.0311 v 0.0232 l 0.006,0.0548 0.021,0.10126 0.0314,0.19477 v 0.0232 l 0.006,0.0232 v 0.0469 l 0.0156,0.0935 0.021,0.17121 0.0418,0.31926 v 0.039 l 0.006,0.039 0.006,0.0702 0.0157,0.14794 v 0.0311 l 0.006,0.0311 v 0.0622 l 0.006,0.11679 0.006,0.008 v 0.0935 l 0.006,0.008 v 0.1168 l 0.006,0.039 v 0.17121 -0.039 h 0.006 v -0.18673 l 0.006,-0.008 v -0.0542 l 0.006,-0.0857 v -0.0469 l 0.006,-0.0542 0.006,-0.10126 v -0.0311 l 0.006,-0.0311 v -0.0622 l 0.0157,-0.1246 v -0.0232 l 0.006,-0.0158 v -0.039 l 0.006,-0.0779 0.021,-0.16347 v -0.0232 l 0.006,-0.0232 v -0.0469 l 0.0157,-0.0857 0.026,-0.19478 v -0.0232 l 0.006,-0.0232 0.006,-0.0543 0.0156,-0.10126 0.0314,-0.21026 0.0795,-0.46719 0.006,-0.0311 v -0.0232 l 0.0156,-0.0622 0.021,-0.11679 0.0418,-0.2414 0.10834,-0.51392 0.0157,-0.0622 0.0157,-0.07 0.0314,-0.13234 0.20204,-0.87212 0.0156,-0.039 0.006,-0.039 0.021,-0.0857 0.0418,-0.16347 0.0937,-0.34265 0.20201,-0.70859 0.0314,-0.0935 0.021,-0.0935 0.0576,-0.17901 0.12247,-0.38159 0.25228,-0.77866 0.0157,-0.0469 0.021,-0.0469 0.0366,-0.101257 0.065,-0.19455 0.14446,-0.404917 0.31037,-0.817607 0.021,-0.0542 0.021,-0.0469 0.0418,-0.109057 0.0796,-0.21026 0.17323,-0.428247 0.37528,-0.864317 0.021,-0.0469 0.021,-0.0542 0.0523,-0.10126 0.0937,-0.20246 0.18738,-0.420458 0.41138,-0.833174 0.89439,-1.713079 0.0366,-0.05425 0.0314,-0.06221 0.065,-0.116796 0.13713,-0.233594 0.27426,-0.474986 0.56981,-0.942196 1.255,-1.892166 0.0418,-0.05425 0.0366,-0.05481 0.0796,-0.116797 0.15859,-0.217998 0.32449,-0.436054 0.66358,-0.879904 1.43529,-1.720853 0.18739,-0.202459 0.18737,-0.210257 0.37526,-0.412717 0.77898,-0.809815 0.0523,-0.0469 0.0524,-0.05481 0.101,-0.09346 0.19469,-0.202459 0.4114,-0.397121 0.83665,-0.770882 0.0575,-0.05424 0.0576,-0.0469 0.11516,-0.101258 0.23815,-0.210257 0.47627,-0.404919 0.97367,-0.786455 0.0576,-0.0469 0.065,-0.0469 0.12246,-0.09352 0.25229,-0.194548 0.50507,-0.373784 1.03857,-0.724181 0.065,-0.03899 0.0576,-0.0469 0.12247,-0.07792 0.25229,-0.16347 0.49774,-0.319256 1.02419,-0.607367 0.12979,-0.07792 0.1298,-0.07018 0.25961,-0.147931 0.52653,-0.280324 1.06742,-0.545053 0.0796,-0.03108 0.0722,-0.03899 0.14393,-0.06995 0.29571,-0.140134 0.59861,-0.264729 0.0722,-0.03108 0.0795,-0.03108 0.14395,-0.06221 0.90876,-0.373784 0.0795,-0.02317 0.0796,-0.03108 0.15127,-0.06221 0.30984,-0.109056 0.61309,-0.218055 1.25496,-0.404918 0.15859,-0.0469 0.15125,-0.0469 0.31719,-0.08572 0.62749,-0.163471 0.0796,-0.02317 0.0796,-0.01582 0.15126,-0.03899 0.31717,-0.07792 0.6419,-0.140133 0.71405,-0.140134 0.0863,-0.01582 0.15859,-0.03108 0.32451,-0.05425 0.0796,-0.0079 0.0796,-0.01582 0.15858,-0.02317 0.32451,-0.05425 0.65638,-0.08572 0.0722,-0.0079 0.0796,-0.0079 0.15126,-0.02317 0.30305,-0.03108 0.0796,-0.0079 0.0723,-0.0079 0.15125,-0.01582 0.30985,-0.02317 0.0722,-0.0079 0.0796,-0.0079 0.15126,-0.01582 h 0.0796 l 0.0795,-0.0079 0.15127,-0.0079 0.0796,-0.0079 0.0722,-0.0079 0.15859,-0.0079 h 0.0723 l 0.0795,-0.0079 0.15126,-0.0079 h 0.0795 l 0.0796,-0.0079 h 0.15124 l 0.0796,-0.0079 h 0.15127 l 0.0796,-0.0079 h 0.2308 l 0.0796,-0.0079 h 1.0098 l 0.0796,0.0079 h 0.31037 l 0.0795,0.0079 h 0.15858 l 0.0863,0.0079 h 0.0796 l 0.0863,0.0079 h 0.0861 l 0.0863,0.0079 0.16591,0.0079 h 0.0863 l 0.0796,0.0079 0.17326,0.0079 0.33916,0.02317 0.0863,0.0079 0.0796,0.0079 0.17325,0.01582 0.33916,0.02317 0.0796,0.01582 0.2596,0.02317 0.33917,0.03899 0.0796,0.0079 0.0863,0.0079 0.17325,0.02317 0.33916,0.0469 0.0796,0.0079 0.0869,0.01582 0.17322,0.02317 0.33917,0.05425 0.0795,0.0079 0.0864,0.01582 0.16593,0.03108 0.33915,0.05425 0.67801,0.132392 0.31718,0.06221 0.31717,0.07018 0.62745,0.147931 0.15859,0.03108 0.15124,0.0469 0.31719,0.07792 0.6275,0.171212 0.0722,0.02317 0.0796,0.01582 0.15858,0.0469 0.31038,0.09352 0.62027,0.194774 1.24055,0.428256 0.0722,0.03108 0.0795,0.02317 0.15126,0.05481 0.29572,0.116797 0.60583,0.241392 1.19008,0.50612 0.0723,0.03899 0.0722,0.03108 0.15127,0.06995 0.28839,0.132392 0.59144,0.288122 1.15398,0.599569 0.0795,0.03899 0.0796,0.0469 0.15859,0.08572 0.30985,0.171212 0.61305,0.358188 1.21895,0.747518 0.0722,0.05424 0.0795,0.0469 0.14393,0.101258 0.30304,0.194548 0.59144,0.404919 1.1612,0.848747 0.065,0.05424 0.0722,0.0469 0.12981,0.109055 0.26692,0.20246 0.5265,0.420514 1.0314,0.872106 0.065,0.05424 0.065,0.06221 0.12247,0.109056 0.25229,0.225796 0.49774,0.459446 0.97368,0.949971 0.065,0.06221 0.065,0.07018 0.38941,0.397121 0.50508,0.537311 0.98089,1.105711 0.11514,0.140134 0.12247,0.140134 0.23815,0.288121 0.46164,0.57621 0.89433,1.183576 0.40404,0.560648 0.39675,0.568434 0.75735,1.168009 0.0418,0.07018 0.0524,0.07018 0.0862,0.147931 0.18055,0.29592 0.35331,0.599569 0.67078,1.21471 0.0418,0.07792 0.0366,0.06995 0.0796,0.155673 0.15859,0.303661 0.30304,0.607366 0.57699,1.238069 0.0365,0.0779 0.0314,0.0779 0.0722,0.15568 0.12978,0.31146 0.25962,0.630727 0.49042,1.269234 0.026,0.0857 0.0366,0.0935 0.0576,0.17121 0.12248,0.350404 0.2308,0.7008 0.0314,0.0857 0.0315,0.0935 0.0523,0.17901 0.10833,0.35039 0.20202,0.70859 0.0314,0.0935 0.021,0.0857 0.0524,0.17918 0.0937,0.3582 0.17324,0.72417 0.021,0.0857 0.021,0.0935 0.0418,0.17901 0.0796,0.36598 0.14393,0.72416 0.021,0.0857 0.0418,0.25693 0.065,0.33486 0.11567,0.68523 0.006,0.0857 0.0418,0.25698 0.0523,0.3426 0.0864,0.69301 0.006,0.0857 0.0157,0.0857 0.0156,0.17121 0.0366,0.3426 0.0156,0.0857 0.006,0.0935 0.0523,0.59957 0.006,0.0935 0.0262,0.3426 0.006,0.17121 0.006,0.0935 0.006,0.0857 0.006,0.17121 0.0157,0.17122 0.006,0.17901 v 0.0935 l 0.006,0.0935 v 0.0935 l 0.006,0.0935 v 0.10126 l 0.006,0.0935 v 0.0935 l 0.006,0.0935 v 0.28034 l 0.006,0.10126 v 0.46719 l 0.006,0.10126 v 0.18681 l -0.006,0.0935 v 0.47498 l -0.006,0.0935 v 0.28812 l -0.006,0.0935 v 0.0935 l -0.006,0.10126 v 0.0935 l -0.006,0.18681 -0.006,0.0935 v 0.10126 l -0.0157,0.18681 v 0.0935 l -0.006,0.10126 -0.006,0.1868 -0.0262,0.38159 -0.0157,0.18681 -0.0156,0.19477 -0.0314,0.38153 -0.0156,0.0935 -0.006,0.0935 -0.0156,0.19478 -0.0418,0.38152 -0.006,0.0935 -0.0157,0.0935 -0.065,0.56065 -0.0157,0.0935 -0.006,0.0935 -0.0314,0.1868 -0.0523,0.38158 -0.0576,0.37379 -0.1947,1.12128 -0.026,0.18681 -0.0366,0.18681 -0.0795,0.38158 -0.15859,0.74753 -0.35331,1.49505 -0.021,0.0857 -0.0314,0.0857 -0.0418,0.17901 -0.0936,0.3504 -0.1947,0.69302 -0.43285,1.39381 -0.11515,0.34259 -0.11567,0.35039 -0.24548,0.69302 -0.51921,1.37823 -0.0723,0.18676 -0.0796,0.1868 -0.15127,0.37379 -0.31037,0.74752 -0.67078,1.48727 -0.0418,0.0857 -0.12981,0.28032 -0.18058,0.37378 -0.36061,0.73196 -0.76453,1.47167 -0.0523,0.0857 -0.0418,0.0857 -0.28107,0.51392 -0.38208,0.68522 -0.80058,1.35489 -1.70218,2.69419 -0.0576,0.0779 -0.0523,0.0857 -0.11517,0.16347 -0.21615,0.32705 -0.45429,0.65409 -0.91601,1.29259 -1.94021,2.5774 -4.57998,5.47402 -4.64491,4.96791 -5.3012,5.24821 -5.33733,5.02241 -4.96947,4.58635 -5.25796,4.85888 -4.68098,4.43063 -4.27703,4.22816 -4.21941,4.4462 -3.47643,3.98678 -3.23122,4.088 -2.48115,3.55852 -1.9474,3.18474 -0.0262,0.0542 -0.0314,0.0469 -0.17325,0.30366 -0.21616,0.40492 -0.41819,0.77868 -0.72846,1.47947 -0.0157,0.0469 -0.021,0.039 -0.0366,0.0857 -0.0795,0.16347 -0.14394,0.31926 -0.26694,0.62293 -0.021,0.039 -0.0418,0.1168 -0.065,0.14793 -0.12247,0.29586 -0.21617,0.56844 -0.0262,0.0779 -0.0314,0.0702 -0.0576,0.14793 -0.10102,0.28812 -0.18739,0.55285 -0.006,0.0311 -0.0156,0.039 -0.021,0.0622 -0.0418,0.13234 -0.0796,0.25698 -0.13712,0.47499 -0.006,0.0311 -0.006,0.0232 -0.0156,0.0622 -0.0314,0.10905 -0.0576,0.21026 -0.10102,0.40492 v 0.0232 l -0.021,0.07 -0.021,0.0857 -0.0366,0.17901 -0.065,0.32705 v 0.0158 l -0.006,0.0232 -0.006,0.0311 -0.006,0.0702 -0.021,0.1324 -0.006,0.0158 v 0.0158 l -0.006,0.0311 -0.006,0.0542 -0.0156,0.11679 -0.006,0.0158 v 0.039 l -0.006,0.0543 -0.0156,0.0935 v 0.0232 l -0.006,0.0232 v 0.0469 l -0.0156,0.0779 v 0.039 l -0.006,0.039 v 0.0857 l -0.006,0.0158 v 0.13234 h -0.006 v 0.0311"
       id="path2571" />
  </g>
  <metadata
     id="metadata2933">
    <rdf:RDF>
      <cc:License
         rdf:about="http://scripts.sil.org/OFL">
        <cc:permits
           rdf:resource="http://scripts.sil.org/pub/OFL/Reproduction" />
        <cc:permits
           rdf:resource="http://scripts.sil.org/pub/OFL/Distribution" />
        <cc:permits
           rdf:resource="http://scripts.sil.org/pub/OFL/Embedding" />
        <cc:permits
           rdf:resource="http://scripts.sil.org/pub/OFL/DerivativeWorks" />
        <cc:requires
           rdf:resource="http://scripts.sil.org/pub/OFL/Notice" />
        <cc:requires
           rdf:resource="http://scripts.sil.org/pub/OFL/Attribution" />
        <cc:requires
           rdf:resource="http://scripts.sil.org/pub/OFL/ShareAlike" />
        <cc:requires
           rdf:resource="http://scripts.sil.org/pub/OFL/DerivativeRenaming" />
        <cc:requires
           rdf:resource="http://scripts.sil.org/pub/OFL/BundlingWhenSelling" />
      </cc:License>
      <cc:Work
         rdf:about="">
        <cc:license
           rdf:resource="http://scripts.sil.org/OFL" />
      </cc:Work>
    </rdf:RDF>
  </metadata>
</svg>
